<svg xmlns="http://www.w3.org/2000/svg" version="1.1" xmlns:xlink="http://www.w3.org/1999/xlink" xmlns:svgjs="http://svgjs.com/svgjs" width="1440" height="250" preserveAspectRatio="none" viewBox="0 0 1440 250"><g mask="url(&quot;#SvgjsMask1004&quot;)" fill="none"><rect width="1440" height="250" x="0" y="0" fill="url(#SvgjsRadialGradient1005)"></rect><path d="M32 250L282 0L604.5 0L354.5 250z" fill="url(#SvgjsLinearGradient1006)"></path><path d="M247.60000000000002 250L497.6 0L590.6 0L340.6 250z" fill="url(#SvgjsLinearGradient1006)"></path><path d="M485.20000000000005 250L735.2 0L903.2 0L653.2 250z" fill="url(#SvgjsLinearGradient1006)"></path><path d="M752.8000000000001 250L1002.8000000000001 0L1322.3000000000002 0L1072.3000000000002 250z" fill="url(#SvgjsLinearGradient1006)"></path><path d="M1397 250L1147 0L1075 0L1325 250z" fill="url(#SvgjsLinearGradient1007)"></path><path d="M1166.4 250L916.4000000000001 0L815.9000000000001 0L1065.9 250z" fill="url(#SvgjsLinearGradient1007)"></path><path d="M949.8 250L699.8 0L482.29999999999995 0L732.3 250z" fill="url(#SvgjsLinearGradient1007)"></path><path d="M719.1999999999999 250L469.19999999999993 0L433.19999999999993 0L683.1999999999999 250z" fill="url(#SvgjsLinearGradient1007)"></path><path d="M1244.650117259212 250L1440 54.65011725921204L1440 250z" fill="url(#SvgjsLinearGradient1006)"></path><path d="M0 250L195.34988274078796 250L 0 54.65011725921204z" fill="url(#SvgjsLinearGradient1007)"></path></g><defs><mask id="SvgjsMask1004"><rect width="1440" height="250" fill="#ffffff"></rect></mask><radialGradient cx="50%" cy="50%" r="730.77" gradientUnits="userSpaceOnUse" id="SvgjsRadialGradient1005"><stop stop-color="rgba(14, 42, 71, 1)" offset="0"></stop><stop stop-color="rgba(31, 55, 86, 1)" offset="1"></stop></radialGradient><linearGradient x1="0%" y1="100%" x2="100%" y2="0%" id="SvgjsLinearGradient1006"><stop stop-color="rgba(15, 70, 185, 0.2)" offset="0"></stop><stop stop-opacity="0" stop-color="rgba(15, 70, 185, 0.2)" offset="0.66"></stop></linearGradient><linearGradient x1="100%" y1="100%" x2="0%" y2="0%" id="SvgjsLinearGradient1007"><stop stop-color="rgba(15, 70, 185, 0.2)" offset="0"></stop><stop stop-opacity="0" stop-color="rgba(15, 70, 185, 0.2)" offset="0.66"></stop></linearGradient></defs></svg>